<?xml version="1.0" encoding="UTF-8"?>
<!DOCTYPE svg PUBLIC "-//W3C//DTD SVG 1.1//EN"
        "http://www.w3.org/Graphics/SVG/1.1/DTD/svg11.dtd">
<svg
  xmlns="http://www.w3.org/2000/svg"
  xmlns:xlink="http://www.w3.org/1999/xlink"
  version="1.1"
  width="720pt"
  height="540pt"
  viewBox="0 0 720 540"
  >
  <rect
    x="0"
    y="0"
    width="720"
    height="540"
    stroke="none"
    fill="#000000"
    fill-opacity="1.000000"
    />
  <g
    transform="matrix(1 0 0 -1 0 540)"
    >
    <polyline
      stroke-width="1.000000e+00"
      stroke="#FFFFFF"
      stroke-opacity="1.000000"
      fill="none"
      points="100.79,63.00 657.00,63.00"
      />
    <polyline
      stroke-width="1.000000e+00"
      stroke="#FFFFFF"
      stroke-opacity="1.000000"
      fill="none"
      points="100.79,63.00 100.79,72.45"
      />
    <polyline
      stroke-width="1.000000e+00"
      stroke="#FFFFFF"
      stroke-opacity="1.000000"
      fill="none"
      points="133.71,63.00 133.71,67.72"
      />
    <polyline
      stroke-width="1.000000e+00"
      stroke="#FFFFFF"
      stroke-opacity="1.000000"
      fill="none"
      points="166.60,63.00 166.60,67.72"
      />
    <polyline
      stroke-width="1.000000e+00"
      stroke="#FFFFFF"
      stroke-opacity="1.000000"
      fill="none"
      points="199.52,63.00 199.52,67.72"
      />
    <polyline
      stroke-width="1.000000e+00"
      stroke="#FFFFFF"
      stroke-opacity="1.000000"
      fill="none"
      points="232.43,63.00 232.43,67.72"
      />
    <polyline
      stroke-width="1.000000e+00"
      stroke="#FFFFFF"
      stroke-opacity="1.000000"
      fill="none"
      points="265.35,63.00 265.35,72.45"
      />
    <polyline
      stroke-width="1.000000e+00"
      stroke="#FFFFFF"
      stroke-opacity="1.000000"
      fill="none"
      points="298.27,63.00 298.27,67.72"
      />
    <polyline
      stroke-width="1.000000e+00"
      stroke="#FFFFFF"
      stroke-opacity="1.000000"
      fill="none"
      points="331.16,63.00 331.16,67.72"
      />
    <polyline
      stroke-width="1.000000e+00"
      stroke="#FFFFFF"
      stroke-opacity="1.000000"
      fill="none"
      points="364.08,63.00 364.08,67.72"
      />
    <polyline
      stroke-width="1.000000e+00"
      stroke="#FFFFFF"
      stroke-opacity="1.000000"
      fill="none"
      points="396.99,63.00 396.99,67.72"
      />
    <polyline
      stroke-width="1.000000e+00"
      stroke="#FFFFFF"
      stroke-opacity="1.000000"
      fill="none"
      points="429.91,63.00 429.91,72.45"
      />
    <polyline
      stroke-width="1.000000e+00"
      stroke="#FFFFFF"
      stroke-opacity="1.000000"
      fill="none"
      points="462.80,63.00 462.80,67.72"
      />
    <polyline
      stroke-width="1.000000e+00"
      stroke="#FFFFFF"
      stroke-opacity="1.000000"
      fill="none"
      points="495.72,63.00 495.72,67.72"
      />
    <polyline
      stroke-width="1.000000e+00"
      stroke="#FFFFFF"
      stroke-opacity="1.000000"
      fill="none"
      points="528.63,63.00 528.63,67.72"
      />
    <polyline
      stroke-width="1.000000e+00"
      stroke="#FFFFFF"
      stroke-opacity="1.000000"
      fill="none"
      points="561.55,63.00 561.55,67.72"
      />
    <polyline
      stroke-width="1.000000e+00"
      stroke="#FFFFFF"
      stroke-opacity="1.000000"
      fill="none"
      points="594.47,63.00 594.47,72.45"
      />
    <polyline
      stroke-width="1.000000e+00"
      stroke="#FFFFFF"
      stroke-opacity="1.000000"
      fill="none"
      points="627.36,63.00 627.36,67.72"
      />
    <polyline
      stroke-width="1.000000e+00"
      stroke="#FFFFFF"
      stroke-opacity="1.000000"
      fill="none"
      points="657.00,63.00 657.00,477.00"
      />
    <polyline
      stroke-width="1.000000e+00"
      stroke="#FFFFFF"
      stroke-opacity="1.000000"
      fill="none"
      points="652.28,72.40 657.00,72.40"
      />
    <polyline
      stroke-width="1.000000e+00"
      stroke="#FFFFFF"
      stroke-opacity="1.000000"
      fill="none"
      points="652.28,91.23 657.00,91.23"
      />
    <polyline
      stroke-width="1.000000e+00"
      stroke="#FFFFFF"
      stroke-opacity="1.000000"
      fill="none"
      points="652.28,110.04 657.00,110.04"
      />
    <polyline
      stroke-width="1.000000e+00"
      stroke="#FFFFFF"
      stroke-opacity="1.000000"
      fill="none"
      points="647.55,128.85 657.00,128.85"
      />
    <polyline
      stroke-width="1.000000e+00"
      stroke="#FFFFFF"
      stroke-opacity="1.000000"
      fill="none"
      points="652.28,147.68 657.00,147.68"
      />
    <polyline
      stroke-width="1.000000e+00"
      stroke="#FFFFFF"
      stroke-opacity="1.000000"
      fill="none"
      points="652.28,166.49 657.00,166.49"
      />
    <polyline
      stroke-width="1.000000e+00"
      stroke="#FFFFFF"
      stroke-opacity="1.000000"
      fill="none"
      points="652.28,185.30 657.00,185.30"
      />
    <polyline
      stroke-width="1.000000e+00"
      stroke="#FFFFFF"
      stroke-opacity="1.000000"
      fill="none"
      points="652.28,204.13 657.00,204.13"
      />
    <polyline
      stroke-width="1.000000e+00"
      stroke="#FFFFFF"
      stroke-opacity="1.000000"
      fill="none"
      points="647.55,222.94 657.00,222.94"
      />
    <polyline
      stroke-width="1.000000e+00"
      stroke="#FFFFFF"
      stroke-opacity="1.000000"
      fill="none"
      points="652.28,241.77 657.00,241.77"
      />
    <polyline
      stroke-width="1.000000e+00"
      stroke="#FFFFFF"
      stroke-opacity="1.000000"
      fill="none"
      points="652.28,260.58 657.00,260.58"
      />
    <polyline
      stroke-width="1.000000e+00"
      stroke="#FFFFFF"
      stroke-opacity="1.000000"
      fill="none"
      points="652.28,279.39 657.00,279.39"
      />
    <polyline
      stroke-width="1.000000e+00"
      stroke="#FFFFFF"
      stroke-opacity="1.000000"
      fill="none"
      points="652.28,298.22 657.00,298.22"
      />
    <polyline
      stroke-width="1.000000e+00"
      stroke="#FFFFFF"
      stroke-opacity="1.000000"
      fill="none"
      points="647.55,317.03 657.00,317.03"
      />
    <polyline
      stroke-width="1.000000e+00"
      stroke="#FFFFFF"
      stroke-opacity="1.000000"
      fill="none"
      points="652.28,335.86 657.00,335.86"
      />
    <polyline
      stroke-width="1.000000e+00"
      stroke="#FFFFFF"
      stroke-opacity="1.000000"
      fill="none"
      points="652.28,354.67 657.00,354.67"
      />
    <polyline
      stroke-width="1.000000e+00"
      stroke="#FFFFFF"
      stroke-opacity="1.000000"
      fill="none"
      points="652.28,373.48 657.00,373.48"
      />
    <polyline
      stroke-width="1.000000e+00"
      stroke="#FFFFFF"
      stroke-opacity="1.000000"
      fill="none"
      points="652.28,392.31 657.00,392.31"
      />
    <polyline
      stroke-width="1.000000e+00"
      stroke="#FFFFFF"
      stroke-opacity="1.000000"
      fill="none"
      points="647.55,411.12 657.00,411.12"
      />
    <polyline
      stroke-width="1.000000e+00"
      stroke="#FFFFFF"
      stroke-opacity="1.000000"
      fill="none"
      points="652.28,429.95 657.00,429.95"
      />
    <polyline
      stroke-width="1.000000e+00"
      stroke="#FFFFFF"
      stroke-opacity="1.000000"
      fill="none"
      points="652.28,448.76 657.00,448.76"
      />
    <polyline
      stroke-width="1.000000e+00"
      stroke="#FFFFFF"
      stroke-opacity="1.000000"
      fill="none"
      points="652.28,467.57 657.00,467.57"
      />
    <polyline
      stroke-width="1.000000e+00"
      stroke="#FFFFFF"
      stroke-opacity="1.000000"
      fill="none"
      points="657.00,477.00 100.79,477.00"
      />
    <polyline
      stroke-width="1.000000e+00"
      stroke="#FFFFFF"
      stroke-opacity="1.000000"
      fill="none"
      points="627.36,472.27 627.36,477.00"
      />
    <polyline
      stroke-width="1.000000e+00"
      stroke="#FFFFFF"
      stroke-opacity="1.000000"
      fill="none"
      points="594.47,467.55 594.47,477.00"
      />
    <polyline
      stroke-width="1.000000e+00"
      stroke="#FFFFFF"
      stroke-opacity="1.000000"
      fill="none"
      points="561.55,472.27 561.55,477.00"
      />
    <polyline
      stroke-width="1.000000e+00"
      stroke="#FFFFFF"
      stroke-opacity="1.000000"
      fill="none"
      points="528.63,472.27 528.63,477.00"
      />
    <polyline
      stroke-width="1.000000e+00"
      stroke="#FFFFFF"
      stroke-opacity="1.000000"
      fill="none"
      points="495.72,472.27 495.72,477.00"
      />
    <polyline
      stroke-width="1.000000e+00"
      stroke="#FFFFFF"
      stroke-opacity="1.000000"
      fill="none"
      points="462.80,472.27 462.80,477.00"
      />
    <polyline
      stroke-width="1.000000e+00"
      stroke="#FFFFFF"
      stroke-opacity="1.000000"
      fill="none"
      points="429.91,467.55 429.91,477.00"
      />
    <polyline
      stroke-width="1.000000e+00"
      stroke="#FFFFFF"
      stroke-opacity="1.000000"
      fill="none"
      points="396.99,472.27 396.99,477.00"
      />
    <polyline
      stroke-width="1.000000e+00"
      stroke="#FFFFFF"
      stroke-opacity="1.000000"
      fill="none"
      points="364.08,472.27 364.08,477.00"
      />
    <polyline
      stroke-width="1.000000e+00"
      stroke="#FFFFFF"
      stroke-opacity="1.000000"
      fill="none"
      points="331.16,472.27 331.16,477.00"
      />
    <polyline
      stroke-width="1.000000e+00"
      stroke="#FFFFFF"
      stroke-opacity="1.000000"
      fill="none"
      points="298.27,472.27 298.27,477.00"
      />
    <polyline
      stroke-width="1.000000e+00"
      stroke="#FFFFFF"
      stroke-opacity="1.000000"
      fill="none"
      points="265.35,467.55 265.35,477.00"
      />
    <polyline
      stroke-width="1.000000e+00"
      stroke="#FFFFFF"
      stroke-opacity="1.000000"
      fill="none"
      points="232.43,472.27 232.43,477.00"
      />
    <polyline
      stroke-width="1.000000e+00"
      stroke="#FFFFFF"
      stroke-opacity="1.000000"
      fill="none"
      points="199.52,472.27 199.52,477.00"
      />
    <polyline
      stroke-width="1.000000e+00"
      stroke="#FFFFFF"
      stroke-opacity="1.000000"
      fill="none"
      points="166.60,472.27 166.60,477.00"
      />
    <polyline
      stroke-width="1.000000e+00"
      stroke="#FFFFFF"
      stroke-opacity="1.000000"
      fill="none"
      points="133.71,472.27 133.71,477.00"
      />
    <polyline
      stroke-width="1.000000e+00"
      stroke="#FFFFFF"
      stroke-opacity="1.000000"
      fill="none"
      points="100.79,467.55 100.79,477.00"
      />
    <polyline
      stroke-width="1.000000e+00"
      stroke="#FFFFFF"
      stroke-opacity="1.000000"
      fill="none"
      points="100.79,477.00 100.79,63.00"
      />
    <polyline
      stroke-width="1.000000e+00"
      stroke="#FFFFFF"
      stroke-opacity="1.000000"
      fill="none"
      points="100.79,467.57 105.52,467.57"
      />
    <polyline
      stroke-width="1.000000e+00"
      stroke="#FFFFFF"
      stroke-opacity="1.000000"
      fill="none"
      points="100.79,448.76 105.52,448.76"
      />
    <polyline
      stroke-width="1.000000e+00"
      stroke="#FFFFFF"
      stroke-opacity="1.000000"
      fill="none"
      points="100.79,429.95 105.52,429.95"
      />
    <polyline
      stroke-width="1.000000e+00"
      stroke="#FFFFFF"
      stroke-opacity="1.000000"
      fill="none"
      points="100.79,411.12 110.24,411.12"
      />
    <polyline
      stroke-width="1.000000e+00"
      stroke="#FFFFFF"
      stroke-opacity="1.000000"
      fill="none"
      points="100.79,392.31 105.52,392.31"
      />
    <polyline
      stroke-width="1.000000e+00"
      stroke="#FFFFFF"
      stroke-opacity="1.000000"
      fill="none"
      points="100.79,373.48 105.52,373.48"
      />
    <polyline
      stroke-width="1.000000e+00"
      stroke="#FFFFFF"
      stroke-opacity="1.000000"
      fill="none"
      points="100.79,354.67 105.52,354.67"
      />
    <polyline
      stroke-width="1.000000e+00"
      stroke="#FFFFFF"
      stroke-opacity="1.000000"
      fill="none"
      points="100.79,335.86 105.52,335.86"
      />
    <polyline
      stroke-width="1.000000e+00"
      stroke="#FFFFFF"
      stroke-opacity="1.000000"
      fill="none"
      points="100.79,317.03 110.24,317.03"
      />
    <polyline
      stroke-width="1.000000e+00"
      stroke="#FFFFFF"
      stroke-opacity="1.000000"
      fill="none"
      points="100.79,298.22 105.52,298.22"
      />
    <polyline
      stroke-width="1.000000e+00"
      stroke="#FFFFFF"
      stroke-opacity="1.000000"
      fill="none"
      points="100.79,279.39 105.52,279.39"
      />
    <polyline
      stroke-width="1.000000e+00"
      stroke="#FFFFFF"
      stroke-opacity="1.000000"
      fill="none"
      points="100.79,260.58 105.52,260.58"
      />
    <polyline
      stroke-width="1.000000e+00"
      stroke="#FFFFFF"
      stroke-opacity="1.000000"
      fill="none"
      points="100.79,241.77 105.52,241.77"
      />
    <polyline
      stroke-width="1.000000e+00"
      stroke="#FFFFFF"
      stroke-opacity="1.000000"
      fill="none"
      points="100.79,222.94 110.24,222.94"
      />
    <polyline
      stroke-width="1.000000e+00"
      stroke="#FFFFFF"
      stroke-opacity="1.000000"
      fill="none"
      points="100.79,204.13 105.52,204.13"
      />
    <polyline
      stroke-width="1.000000e+00"
      stroke="#FFFFFF"
      stroke-opacity="1.000000"
      fill="none"
      points="100.79,185.30 105.52,185.30"
      />
    <polyline
      stroke-width="1.000000e+00"
      stroke="#FFFFFF"
      stroke-opacity="1.000000"
      fill="none"
      points="100.79,166.49 105.52,166.49"
      />
    <polyline
      stroke-width="1.000000e+00"
      stroke="#FFFFFF"
      stroke-opacity="1.000000"
      fill="none"
      points="100.79,147.68 105.52,147.68"
      />
    <polyline
      stroke-width="1.000000e+00"
      stroke="#FFFFFF"
      stroke-opacity="1.000000"
      fill="none"
      points="100.79,128.85 110.24,128.85"
      />
    <polyline
      stroke-width="1.000000e+00"
      stroke="#FFFFFF"
      stroke-opacity="1.000000"
      fill="none"
      points="100.79,110.04 105.52,110.04"
      />
    <polyline
      stroke-width="1.000000e+00"
      stroke="#FFFFFF"
      stroke-opacity="1.000000"
      fill="none"
      points="100.79,91.23 105.52,91.23"
      />
    <polyline
      stroke-width="1.000000e+00"
      stroke="#FFFFFF"
      stroke-opacity="1.000000"
      fill="none"
      points="100.79,72.40 105.52,72.40"
      />
    <clipPath
      id="text-clipping0"
      >
      <polygon
        points="0.000000,0.000000 0.000000,539.994507 720.000000,539.994507 720.000000,0.000000"
        />
    </clipPath>
    <g
      clip-path="url(#text-clipping0)"
      >
      <text
        dominant-baseline="no-change"
        fill="#FFFFFF"
        fill-opacity="1.000000"
        xml:space="preserve"
        font-size="16"
        transform="matrix(1.000000 0.000000 0.000000 -1.000000 100.813623 44.100467)"
        text-anchor="middle"
        x="0.000000"
        y="6.451584"
><tspan font-family="sans-serif" font-style="normal" font-weight="normal">&#x30;</tspan></text>
    </g>
    <g
      clip-path="url(#text-clipping0)"
      >
      <text
        dominant-baseline="no-change"
        fill="#FFFFFF"
        fill-opacity="1.000000"
        xml:space="preserve"
        font-size="16"
        transform="matrix(1.000000 0.000000 0.000000 -1.000000 265.349895 44.100467)"
        text-anchor="middle"
        x="0.000000"
        y="6.451584"
><tspan font-family="sans-serif" font-style="normal" font-weight="normal">&#x35;&#x30;</tspan></text>
    </g>
    <g
      clip-path="url(#text-clipping0)"
      >
      <text
        dominant-baseline="no-change"
        fill="#FFFFFF"
        fill-opacity="1.000000"
        xml:space="preserve"
        font-size="16"
        transform="matrix(1.000000 0.000000 0.000000 -1.000000 429.908139 44.100467)"
        text-anchor="middle"
        x="0.000000"
        y="6.451584"
><tspan font-family="sans-serif" font-style="normal" font-weight="normal">&#x31;&#x30;&#x30;</tspan></text>
    </g>
    <g
      clip-path="url(#text-clipping0)"
      >
      <text
        dominant-baseline="no-change"
        fill="#FFFFFF"
        fill-opacity="1.000000"
        xml:space="preserve"
        font-size="16"
        transform="matrix(1.000000 0.000000 0.000000 -1.000000 594.466384 44.100467)"
        text-anchor="middle"
        x="0.000000"
        y="6.451584"
><tspan font-family="sans-serif" font-style="normal" font-weight="normal">&#x31;&#x35;&#x30;</tspan></text>
    </g>
    <g
      clip-path="url(#text-clipping0)"
      >
      <text
        dominant-baseline="no-change"
        fill="#FFFFFF"
        fill-opacity="1.000000"
        xml:space="preserve"
        font-size="16"
        transform="matrix(1.000000 0.000000 0.000000 -1.000000 94.507279 128.873562)"
        text-anchor="end"
        x="0.000000"
        y="6.451584"
><tspan font-family="sans-serif" font-style="normal" font-weight="normal">&#x36;&#x30;</tspan></text>
    </g>
    <g
      clip-path="url(#text-clipping0)"
      >
      <text
        dominant-baseline="no-change"
        fill="#FFFFFF"
        fill-opacity="1.000000"
        xml:space="preserve"
        font-size="16"
        transform="matrix(1.000000 0.000000 0.000000 -1.000000 94.507279 222.963347)"
        text-anchor="end"
        x="0.000000"
        y="6.451584"
><tspan font-family="sans-serif" font-style="normal" font-weight="normal">&#x37;&#x30;</tspan></text>
    </g>
    <g
      clip-path="url(#text-clipping0)"
      >
      <text
        dominant-baseline="no-change"
        fill="#FFFFFF"
        fill-opacity="1.000000"
        xml:space="preserve"
        font-size="16"
        transform="matrix(1.000000 0.000000 0.000000 -1.000000 94.507279 317.031159)"
        text-anchor="end"
        x="0.000000"
        y="6.451584"
><tspan font-family="sans-serif" font-style="normal" font-weight="normal">&#x38;&#x30;</tspan></text>
    </g>
    <g
      clip-path="url(#text-clipping0)"
      >
      <text
        dominant-baseline="no-change"
        fill="#FFFFFF"
        fill-opacity="1.000000"
        xml:space="preserve"
        font-size="16"
        transform="matrix(1.000000 0.000000 0.000000 -1.000000 94.507279 411.120945)"
        text-anchor="end"
        x="0.000000"
        y="6.451584"
><tspan font-family="sans-serif" font-style="normal" font-weight="normal">&#x39;&#x30;</tspan></text>
    </g>
    <g
      clip-path="url(#text-clipping0)"
      >
      <text
        dominant-baseline="no-change"
        fill="#FFFFFF"
        fill-opacity="1.000000"
        xml:space="preserve"
        font-size="16"
        transform="matrix(1.000000 0.000000 0.000000 -1.000000 378.908048 502.200385)"
        text-anchor="middle"
        x="0.000000"
        y="6.451584"
><tspan font-family="sans-serif" font-style="normal" font-weight="normal">&#x54;&#x68;&#x65;&#x20;&#x70;&#x6c;&#x6f;&#x74;&#x20;&#x6f;&#x66;&#x20;&#x48;&#x75;&#x6d;&#x69;&#x64;&#x69;&#x74;&#x79;&#x20;&#x77;&#x69;&#x74;&#x68;&#x20;&#x72;&#x65;&#x73;&#x70;&#x65;&#x63;&#x74;&#x20;&#x74;&#x6f;&#x20;&#x54;&#x69;&#x6d;&#x65;</tspan></text>
    </g>
    <g
      clip-path="url(#text-clipping0)"
      >
      <text
        dominant-baseline="no-change"
        fill="#FFFFFF"
        fill-opacity="1.000000"
        xml:space="preserve"
        font-size="16"
        transform="matrix(1.000000 0.000000 0.000000 -1.000000 378.908048 22.676473)"
        text-anchor="middle"
        x="0.000000"
        y="6.451584"
><tspan font-family="sans-serif" font-style="normal" font-weight="normal">&#x54;&#x69;&#x6d;&#x65;</tspan></text>
    </g>
    <g
      clip-path="url(#text-clipping0)"
      >
      <text
        dominant-baseline="no-change"
        fill="#FFFFFF"
        fill-opacity="1.000000"
        xml:space="preserve"
        font-size="16"
        transform="matrix(0.000000 1.000000 1.000000 -0.000000 37.794122 270.008240)"
        text-anchor="middle"
        x="0.000000"
        y="6.451584"
><tspan font-family="sans-serif" font-style="normal" font-weight="normal">&#x48;&#x75;&#x6d;&#x69;&#x64;&#x69;&#x74;&#x79;</tspan></text>
    </g>
    <polyline
      stroke-width="1.000000e+00"
      stroke="#FFFFFF"
      stroke-opacity="1.000000"
      fill="none"
      points="100.79,269.99 104.09,260.58 107.36,251.18 110.66,241.77 113.95,232.35 117.25,213.54 120.55,194.73 123.82,185.30 127.12,166.49 130.41,157.09 
      133.71,175.90 136.98,166.49 140.28,175.90 143.57,175.90 146.87,166.49 150.17,157.09 153.44,138.28 156.74,100.64 160.03,91.23 163.33,110.04 
      166.60,110.04 169.90,119.45 173.19,138.28 176.49,147.68 179.79,138.28 183.06,194.73 186.36,241.77 189.65,279.39 192.95,298.22 196.22,326.44 
      199.52,335.86 202.81,335.86 206.11,326.44 209.41,307.63 212.68,307.63 215.98,317.03 219.27,326.44 222.57,326.44 225.84,345.27 229.14,345.27 
      232.43,345.27 235.73,354.67 239.03,354.67 242.30,364.08 245.60,364.08 248.89,373.48 252.19,382.91 255.46,382.91 258.76,382.91 262.05,382.91 
      265.35,392.31 268.65,392.31 271.92,392.31 275.22,401.72 278.51,401.72 281.81,401.72 285.08,401.72 288.38,401.72 291.67,401.72 294.97,411.12 
      298.27,411.12 301.54,420.53 304.84,420.53 308.13,420.53 311.43,420.53 314.70,429.95 318.00,429.95 321.29,429.95 324.59,420.53 327.89,420.53 
      331.16,420.53 334.46,411.12 337.75,411.12 341.05,411.12 344.32,411.12 347.62,411.12 350.91,411.12 354.21,411.12 357.51,401.72 360.78,401.72 
      364.08,401.72 367.37,392.31 370.67,373.48 373.94,364.08 377.24,382.91 380.53,382.91 383.83,373.48 387.13,373.48 390.40,373.48 393.70,373.48 
      396.99,364.08 400.29,345.27 403.56,326.44 406.86,307.63 410.15,307.63 413.45,307.63 416.75,307.63 420.02,307.63 423.32,317.03 426.61,317.03 
      429.91,317.03 433.18,307.63 436.48,307.63 439.77,307.63 443.07,307.63 446.37,307.63 449.64,307.63 452.94,307.63 456.23,307.63 459.53,317.03 
      462.80,326.44 466.10,335.86 469.39,345.27 472.69,354.67 475.99,354.67 479.26,354.67 482.56,345.27 485.85,335.86 489.15,326.44 492.42,326.44 
      495.72,326.44 499.01,335.86 502.31,354.67 505.61,364.08 508.88,373.48 512.18,382.91 515.47,382.91 518.77,382.91 522.06,392.31 525.34,392.31 
      528.63,401.72 531.93,401.72 535.23,411.12 538.50,420.53 541.80,420.53 545.09,429.95 548.39,429.95 551.68,439.36 554.96,439.36 558.25,439.36 
      561.55,448.76 564.85,448.76 568.12,448.76 571.42,448.76 574.71,448.76 578.01,439.36 581.30,420.53 584.58,411.12 587.87,401.72 591.17,401.72 
      594.47,392.31 597.74,373.48 601.04,354.67 604.33,345.27 607.63,335.86 610.92,335.86 614.20,335.86 617.49,335.86 620.79,335.86 624.09,335.86 
      627.36,326.44 630.66,317.03 633.95,307.63 637.25,298.22 640.54,279.39 643.82,269.99 647.11,269.99 650.41,279.39 "/>
  </g>
</svg>
