<?xml version="1.0" encoding="UTF-8"?>
<!DOCTYPE svg PUBLIC "-//W3C//DTD SVG 1.1//EN"
        "http://www.w3.org/Graphics/SVG/1.1/DTD/svg11.dtd">
<svg
  xmlns="http://www.w3.org/2000/svg"
  xmlns:xlink="http://www.w3.org/1999/xlink"
  version="1.1"
  width="720pt"
  height="540pt"
  viewBox="0 0 720 540"
  >
  <rect
    x="0"
    y="0"
    width="720"
    height="540"
    stroke="none"
    fill="#000000"
    fill-opacity="1.000000"
    />
  <g
    transform="matrix(1 0 0 -1 0 540)"
    >
    <polyline
      stroke-width="1.000000e+00"
      stroke="#FFFFFF"
      stroke-opacity="1.000000"
      fill="none"
      points="100.79,63.00 657.00,63.00"
      />
    <polyline
      stroke-width="1.000000e+00"
      stroke="#FFFFFF"
      stroke-opacity="1.000000"
      fill="none"
      points="100.79,63.00 100.79,72.45"
      />
    <polyline
      stroke-width="1.000000e+00"
      stroke="#FFFFFF"
      stroke-opacity="1.000000"
      fill="none"
      points="133.71,63.00 133.71,67.72"
      />
    <polyline
      stroke-width="1.000000e+00"
      stroke="#FFFFFF"
      stroke-opacity="1.000000"
      fill="none"
      points="166.60,63.00 166.60,67.72"
      />
    <polyline
      stroke-width="1.000000e+00"
      stroke="#FFFFFF"
      stroke-opacity="1.000000"
      fill="none"
      points="199.52,63.00 199.52,67.72"
      />
    <polyline
      stroke-width="1.000000e+00"
      stroke="#FFFFFF"
      stroke-opacity="1.000000"
      fill="none"
      points="232.43,63.00 232.43,67.72"
      />
    <polyline
      stroke-width="1.000000e+00"
      stroke="#FFFFFF"
      stroke-opacity="1.000000"
      fill="none"
      points="265.35,63.00 265.35,72.45"
      />
    <polyline
      stroke-width="1.000000e+00"
      stroke="#FFFFFF"
      stroke-opacity="1.000000"
      fill="none"
      points="298.27,63.00 298.27,67.72"
      />
    <polyline
      stroke-width="1.000000e+00"
      stroke="#FFFFFF"
      stroke-opacity="1.000000"
      fill="none"
      points="331.16,63.00 331.16,67.72"
      />
    <polyline
      stroke-width="1.000000e+00"
      stroke="#FFFFFF"
      stroke-opacity="1.000000"
      fill="none"
      points="364.08,63.00 364.08,67.72"
      />
    <polyline
      stroke-width="1.000000e+00"
      stroke="#FFFFFF"
      stroke-opacity="1.000000"
      fill="none"
      points="396.99,63.00 396.99,67.72"
      />
    <polyline
      stroke-width="1.000000e+00"
      stroke="#FFFFFF"
      stroke-opacity="1.000000"
      fill="none"
      points="429.91,63.00 429.91,72.45"
      />
    <polyline
      stroke-width="1.000000e+00"
      stroke="#FFFFFF"
      stroke-opacity="1.000000"
      fill="none"
      points="462.80,63.00 462.80,67.72"
      />
    <polyline
      stroke-width="1.000000e+00"
      stroke="#FFFFFF"
      stroke-opacity="1.000000"
      fill="none"
      points="495.72,63.00 495.72,67.72"
      />
    <polyline
      stroke-width="1.000000e+00"
      stroke="#FFFFFF"
      stroke-opacity="1.000000"
      fill="none"
      points="528.63,63.00 528.63,67.72"
      />
    <polyline
      stroke-width="1.000000e+00"
      stroke="#FFFFFF"
      stroke-opacity="1.000000"
      fill="none"
      points="561.55,63.00 561.55,67.72"
      />
    <polyline
      stroke-width="1.000000e+00"
      stroke="#FFFFFF"
      stroke-opacity="1.000000"
      fill="none"
      points="594.47,63.00 594.47,72.45"
      />
    <polyline
      stroke-width="1.000000e+00"
      stroke="#FFFFFF"
      stroke-opacity="1.000000"
      fill="none"
      points="627.36,63.00 627.36,67.72"
      />
    <polyline
      stroke-width="1.000000e+00"
      stroke="#FFFFFF"
      stroke-opacity="1.000000"
      fill="none"
      points="657.00,63.00 657.00,477.00"
      />
    <polyline
      stroke-width="1.000000e+00"
      stroke="#FFFFFF"
      stroke-opacity="1.000000"
      fill="none"
      points="647.55,75.94 657.00,75.94"
      />
    <polyline
      stroke-width="1.000000e+00"
      stroke="#FFFFFF"
      stroke-opacity="1.000000"
      fill="none"
      points="652.28,97.50 657.00,97.50"
      />
    <polyline
      stroke-width="1.000000e+00"
      stroke="#FFFFFF"
      stroke-opacity="1.000000"
      fill="none"
      points="652.28,119.05 657.00,119.05"
      />
    <polyline
      stroke-width="1.000000e+00"
      stroke="#FFFFFF"
      stroke-opacity="1.000000"
      fill="none"
      points="652.28,140.63 657.00,140.63"
      />
    <polyline
      stroke-width="1.000000e+00"
      stroke="#FFFFFF"
      stroke-opacity="1.000000"
      fill="none"
      points="647.55,162.19 657.00,162.19"
      />
    <polyline
      stroke-width="1.000000e+00"
      stroke="#FFFFFF"
      stroke-opacity="1.000000"
      fill="none"
      points="652.28,183.74 657.00,183.74"
      />
    <polyline
      stroke-width="1.000000e+00"
      stroke="#FFFFFF"
      stroke-opacity="1.000000"
      fill="none"
      points="652.28,205.30 657.00,205.30"
      />
    <polyline
      stroke-width="1.000000e+00"
      stroke="#FFFFFF"
      stroke-opacity="1.000000"
      fill="none"
      points="652.28,226.87 657.00,226.87"
      />
    <polyline
      stroke-width="1.000000e+00"
      stroke="#FFFFFF"
      stroke-opacity="1.000000"
      fill="none"
      points="647.55,248.43 657.00,248.43"
      />
    <polyline
      stroke-width="1.000000e+00"
      stroke="#FFFFFF"
      stroke-opacity="1.000000"
      fill="none"
      points="652.28,269.99 657.00,269.99"
      />
    <polyline
      stroke-width="1.000000e+00"
      stroke="#FFFFFF"
      stroke-opacity="1.000000"
      fill="none"
      points="652.28,291.56 657.00,291.56"
      />
    <polyline
      stroke-width="1.000000e+00"
      stroke="#FFFFFF"
      stroke-opacity="1.000000"
      fill="none"
      points="652.28,313.12 657.00,313.12"
      />
    <polyline
      stroke-width="1.000000e+00"
      stroke="#FFFFFF"
      stroke-opacity="1.000000"
      fill="none"
      points="647.55,334.68 657.00,334.68"
      />
    <polyline
      stroke-width="1.000000e+00"
      stroke="#FFFFFF"
      stroke-opacity="1.000000"
      fill="none"
      points="652.28,356.23 657.00,356.23"
      />
    <polyline
      stroke-width="1.000000e+00"
      stroke="#FFFFFF"
      stroke-opacity="1.000000"
      fill="none"
      points="652.28,377.81 657.00,377.81"
      />
    <polyline
      stroke-width="1.000000e+00"
      stroke="#FFFFFF"
      stroke-opacity="1.000000"
      fill="none"
      points="652.28,399.37 657.00,399.37"
      />
    <polyline
      stroke-width="1.000000e+00"
      stroke="#FFFFFF"
      stroke-opacity="1.000000"
      fill="none"
      points="647.55,420.92 657.00,420.92"
      />
    <polyline
      stroke-width="1.000000e+00"
      stroke="#FFFFFF"
      stroke-opacity="1.000000"
      fill="none"
      points="652.28,442.50 657.00,442.50"
      />
    <polyline
      stroke-width="1.000000e+00"
      stroke="#FFFFFF"
      stroke-opacity="1.000000"
      fill="none"
      points="652.28,464.05 657.00,464.05"
      />
    <polyline
      stroke-width="1.000000e+00"
      stroke="#FFFFFF"
      stroke-opacity="1.000000"
      fill="none"
      points="657.00,477.00 100.79,477.00"
      />
    <polyline
      stroke-width="1.000000e+00"
      stroke="#FFFFFF"
      stroke-opacity="1.000000"
      fill="none"
      points="627.36,472.27 627.36,477.00"
      />
    <polyline
      stroke-width="1.000000e+00"
      stroke="#FFFFFF"
      stroke-opacity="1.000000"
      fill="none"
      points="594.47,467.55 594.47,477.00"
      />
    <polyline
      stroke-width="1.000000e+00"
      stroke="#FFFFFF"
      stroke-opacity="1.000000"
      fill="none"
      points="561.55,472.27 561.55,477.00"
      />
    <polyline
      stroke-width="1.000000e+00"
      stroke="#FFFFFF"
      stroke-opacity="1.000000"
      fill="none"
      points="528.63,472.27 528.63,477.00"
      />
    <polyline
      stroke-width="1.000000e+00"
      stroke="#FFFFFF"
      stroke-opacity="1.000000"
      fill="none"
      points="495.72,472.27 495.72,477.00"
      />
    <polyline
      stroke-width="1.000000e+00"
      stroke="#FFFFFF"
      stroke-opacity="1.000000"
      fill="none"
      points="462.80,472.27 462.80,477.00"
      />
    <polyline
      stroke-width="1.000000e+00"
      stroke="#FFFFFF"
      stroke-opacity="1.000000"
      fill="none"
      points="429.91,467.55 429.91,477.00"
      />
    <polyline
      stroke-width="1.000000e+00"
      stroke="#FFFFFF"
      stroke-opacity="1.000000"
      fill="none"
      points="396.99,472.27 396.99,477.00"
      />
    <polyline
      stroke-width="1.000000e+00"
      stroke="#FFFFFF"
      stroke-opacity="1.000000"
      fill="none"
      points="364.08,472.27 364.08,477.00"
      />
    <polyline
      stroke-width="1.000000e+00"
      stroke="#FFFFFF"
      stroke-opacity="1.000000"
      fill="none"
      points="331.16,472.27 331.16,477.00"
      />
    <polyline
      stroke-width="1.000000e+00"
      stroke="#FFFFFF"
      stroke-opacity="1.000000"
      fill="none"
      points="298.27,472.27 298.27,477.00"
      />
    <polyline
      stroke-width="1.000000e+00"
      stroke="#FFFFFF"
      stroke-opacity="1.000000"
      fill="none"
      points="265.35,467.55 265.35,477.00"
      />
    <polyline
      stroke-width="1.000000e+00"
      stroke="#FFFFFF"
      stroke-opacity="1.000000"
      fill="none"
      points="232.43,472.27 232.43,477.00"
      />
    <polyline
      stroke-width="1.000000e+00"
      stroke="#FFFFFF"
      stroke-opacity="1.000000"
      fill="none"
      points="199.52,472.27 199.52,477.00"
      />
    <polyline
      stroke-width="1.000000e+00"
      stroke="#FFFFFF"
      stroke-opacity="1.000000"
      fill="none"
      points="166.60,472.27 166.60,477.00"
      />
    <polyline
      stroke-width="1.000000e+00"
      stroke="#FFFFFF"
      stroke-opacity="1.000000"
      fill="none"
      points="133.71,472.27 133.71,477.00"
      />
    <polyline
      stroke-width="1.000000e+00"
      stroke="#FFFFFF"
      stroke-opacity="1.000000"
      fill="none"
      points="100.79,467.55 100.79,477.00"
      />
    <polyline
      stroke-width="1.000000e+00"
      stroke="#FFFFFF"
      stroke-opacity="1.000000"
      fill="none"
      points="100.79,477.00 100.79,63.00"
      />
    <polyline
      stroke-width="1.000000e+00"
      stroke="#FFFFFF"
      stroke-opacity="1.000000"
      fill="none"
      points="100.79,464.05 105.52,464.05"
      />
    <polyline
      stroke-width="1.000000e+00"
      stroke="#FFFFFF"
      stroke-opacity="1.000000"
      fill="none"
      points="100.79,442.50 105.52,442.50"
      />
    <polyline
      stroke-width="1.000000e+00"
      stroke="#FFFFFF"
      stroke-opacity="1.000000"
      fill="none"
      points="100.79,420.92 110.24,420.92"
      />
    <polyline
      stroke-width="1.000000e+00"
      stroke="#FFFFFF"
      stroke-opacity="1.000000"
      fill="none"
      points="100.79,399.37 105.52,399.37"
      />
    <polyline
      stroke-width="1.000000e+00"
      stroke="#FFFFFF"
      stroke-opacity="1.000000"
      fill="none"
      points="100.79,377.81 105.52,377.81"
      />
    <polyline
      stroke-width="1.000000e+00"
      stroke="#FFFFFF"
      stroke-opacity="1.000000"
      fill="none"
      points="100.79,356.23 105.52,356.23"
      />
    <polyline
      stroke-width="1.000000e+00"
      stroke="#FFFFFF"
      stroke-opacity="1.000000"
      fill="none"
      points="100.79,334.68 110.24,334.68"
      />
    <polyline
      stroke-width="1.000000e+00"
      stroke="#FFFFFF"
      stroke-opacity="1.000000"
      fill="none"
      points="100.79,313.12 105.52,313.12"
      />
    <polyline
      stroke-width="1.000000e+00"
      stroke="#FFFFFF"
      stroke-opacity="1.000000"
      fill="none"
      points="100.79,291.56 105.52,291.56"
      />
    <polyline
      stroke-width="1.000000e+00"
      stroke="#FFFFFF"
      stroke-opacity="1.000000"
      fill="none"
      points="100.79,269.99 105.52,269.99"
      />
    <polyline
      stroke-width="1.000000e+00"
      stroke="#FFFFFF"
      stroke-opacity="1.000000"
      fill="none"
      points="100.79,248.43 110.24,248.43"
      />
    <polyline
      stroke-width="1.000000e+00"
      stroke="#FFFFFF"
      stroke-opacity="1.000000"
      fill="none"
      points="100.79,226.87 105.52,226.87"
      />
    <polyline
      stroke-width="1.000000e+00"
      stroke="#FFFFFF"
      stroke-opacity="1.000000"
      fill="none"
      points="100.79,205.30 105.52,205.30"
      />
    <polyline
      stroke-width="1.000000e+00"
      stroke="#FFFFFF"
      stroke-opacity="1.000000"
      fill="none"
      points="100.79,183.74 105.52,183.74"
      />
    <polyline
      stroke-width="1.000000e+00"
      stroke="#FFFFFF"
      stroke-opacity="1.000000"
      fill="none"
      points="100.79,162.19 110.24,162.19"
      />
    <polyline
      stroke-width="1.000000e+00"
      stroke="#FFFFFF"
      stroke-opacity="1.000000"
      fill="none"
      points="100.79,140.63 105.52,140.63"
      />
    <polyline
      stroke-width="1.000000e+00"
      stroke="#FFFFFF"
      stroke-opacity="1.000000"
      fill="none"
      points="100.79,119.05 105.52,119.05"
      />
    <polyline
      stroke-width="1.000000e+00"
      stroke="#FFFFFF"
      stroke-opacity="1.000000"
      fill="none"
      points="100.79,97.50 105.52,97.50"
      />
    <polyline
      stroke-width="1.000000e+00"
      stroke="#FFFFFF"
      stroke-opacity="1.000000"
      fill="none"
      points="100.79,75.94 110.24,75.94"
      />
    <clipPath
      id="text-clipping0"
      >
      <polygon
        points="0.000000,0.000000 0.000000,539.994507 720.000000,539.994507 720.000000,0.000000"
        />
    </clipPath>
    <g
      clip-path="url(#text-clipping0)"
      >
      <text
        dominant-baseline="no-change"
        fill="#FFFFFF"
        fill-opacity="1.000000"
        xml:space="preserve"
        font-size="16"
        transform="matrix(1.000000 0.000000 0.000000 -1.000000 100.813623 44.100467)"
        text-anchor="middle"
        x="0.000000"
        y="6.451584"
><tspan font-family="sans-serif" font-style="normal" font-weight="normal">&#x30;</tspan></text>
    </g>
    <g
      clip-path="url(#text-clipping0)"
      >
      <text
        dominant-baseline="no-change"
        fill="#FFFFFF"
        fill-opacity="1.000000"
        xml:space="preserve"
        font-size="16"
        transform="matrix(1.000000 0.000000 0.000000 -1.000000 265.349895 44.100467)"
        text-anchor="middle"
        x="0.000000"
        y="6.451584"
><tspan font-family="sans-serif" font-style="normal" font-weight="normal">&#x35;&#x30;</tspan></text>
    </g>
    <g
      clip-path="url(#text-clipping0)"
      >
      <text
        dominant-baseline="no-change"
        fill="#FFFFFF"
        fill-opacity="1.000000"
        xml:space="preserve"
        font-size="16"
        transform="matrix(1.000000 0.000000 0.000000 -1.000000 429.908139 44.100467)"
        text-anchor="middle"
        x="0.000000"
        y="6.451584"
><tspan font-family="sans-serif" font-style="normal" font-weight="normal">&#x31;&#x30;&#x30;</tspan></text>
    </g>
    <g
      clip-path="url(#text-clipping0)"
      >
      <text
        dominant-baseline="no-change"
        fill="#FFFFFF"
        fill-opacity="1.000000"
        xml:space="preserve"
        font-size="16"
        transform="matrix(1.000000 0.000000 0.000000 -1.000000 594.466384 44.100467)"
        text-anchor="middle"
        x="0.000000"
        y="6.451584"
><tspan font-family="sans-serif" font-style="normal" font-weight="normal">&#x31;&#x35;&#x30;</tspan></text>
    </g>
    <g
      clip-path="url(#text-clipping0)"
      >
      <text
        dominant-baseline="no-change"
        fill="#FFFFFF"
        fill-opacity="1.000000"
        xml:space="preserve"
        font-size="16"
        transform="matrix(1.000000 0.000000 0.000000 -1.000000 94.507279 75.939817)"
        text-anchor="end"
        x="0.000000"
        y="6.451584"
><tspan font-family="sans-serif" font-style="normal" font-weight="normal">&#x30;</tspan></text>
    </g>
    <g
      clip-path="url(#text-clipping0)"
      >
      <text
        dominant-baseline="no-change"
        fill="#FFFFFF"
        fill-opacity="1.000000"
        xml:space="preserve"
        font-size="16"
        transform="matrix(1.000000 0.000000 0.000000 -1.000000 94.507279 162.185125)"
        text-anchor="end"
        x="0.000000"
        y="6.451584"
><tspan font-family="sans-serif" font-style="normal" font-weight="normal">&#x32;&#x30;</tspan></text>
    </g>
    <g
      clip-path="url(#text-clipping0)"
      >
      <text
        dominant-baseline="no-change"
        fill="#FFFFFF"
        fill-opacity="1.000000"
        xml:space="preserve"
        font-size="16"
        transform="matrix(1.000000 0.000000 0.000000 -1.000000 94.507279 248.430433)"
        text-anchor="end"
        x="0.000000"
        y="6.451584"
><tspan font-family="sans-serif" font-style="normal" font-weight="normal">&#x34;&#x30;</tspan></text>
    </g>
    <g
      clip-path="url(#text-clipping0)"
      >
      <text
        dominant-baseline="no-change"
        fill="#FFFFFF"
        fill-opacity="1.000000"
        xml:space="preserve"
        font-size="16"
        transform="matrix(1.000000 0.000000 0.000000 -1.000000 94.507279 334.675741)"
        text-anchor="end"
        x="0.000000"
        y="6.451584"
><tspan font-family="sans-serif" font-style="normal" font-weight="normal">&#x36;&#x30;</tspan></text>
    </g>
    <g
      clip-path="url(#text-clipping0)"
      >
      <text
        dominant-baseline="no-change"
        fill="#FFFFFF"
        fill-opacity="1.000000"
        xml:space="preserve"
        font-size="16"
        transform="matrix(1.000000 0.000000 0.000000 -1.000000 94.507279 420.921049)"
        text-anchor="end"
        x="0.000000"
        y="6.451584"
><tspan font-family="sans-serif" font-style="normal" font-weight="normal">&#x38;&#x30;</tspan></text>
    </g>
    <g
      clip-path="url(#text-clipping0)"
      >
      <text
        dominant-baseline="no-change"
        fill="#FFFFFF"
        fill-opacity="1.000000"
        xml:space="preserve"
        font-size="16"
        transform="matrix(1.000000 0.000000 0.000000 -1.000000 378.908048 502.200385)"
        text-anchor="middle"
        x="0.000000"
        y="6.451584"
><tspan font-family="sans-serif" font-style="normal" font-weight="normal">&#x54;&#x68;&#x65;&#x20;&#x70;&#x6c;&#x6f;&#x74;&#x20;&#x6f;&#x66;&#x20;&#x50;&#x72;&#x65;&#x63;&#x69;&#x70;&#x69;&#x74;&#x61;&#x74;&#x69;&#x6f;&#x6e;&#x20;&#x77;&#x69;&#x74;&#x68;&#x20;&#x72;&#x65;&#x73;&#x70;&#x65;&#x63;&#x74;&#x20;&#x74;&#x6f;&#x20;&#x54;&#x69;&#x6d;&#x65;</tspan></text>
    </g>
    <g
      clip-path="url(#text-clipping0)"
      >
      <text
        dominant-baseline="no-change"
        fill="#FFFFFF"
        fill-opacity="1.000000"
        xml:space="preserve"
        font-size="16"
        transform="matrix(1.000000 0.000000 0.000000 -1.000000 378.908048 22.676473)"
        text-anchor="middle"
        x="0.000000"
        y="6.451584"
><tspan font-family="sans-serif" font-style="normal" font-weight="normal">&#x54;&#x69;&#x6d;&#x65;</tspan></text>
    </g>
    <g
      clip-path="url(#text-clipping0)"
      >
      <text
        dominant-baseline="no-change"
        fill="#FFFFFF"
        fill-opacity="1.000000"
        xml:space="preserve"
        font-size="16"
        transform="matrix(0.000000 1.000000 1.000000 -0.000000 37.794122 270.008240)"
        text-anchor="middle"
        x="0.000000"
        y="6.451584"
><tspan font-family="sans-serif" font-style="normal" font-weight="normal">&#x50;&#x72;&#x65;&#x63;&#x69;&#x70;&#x69;&#x74;&#x61;&#x74;&#x69;&#x6f;&#x6e;</tspan></text>
    </g>
    <polyline
      stroke-width="1.000000e+00"
      stroke="#FFFFFF"
      stroke-opacity="1.000000"
      fill="none"
      points="100.79,75.94 104.09,75.94 107.36,75.94 110.66,75.94 113.95,75.94 117.25,75.94 120.55,75.94 123.82,75.94 127.12,75.94 130.41,75.94 
      133.71,75.94 136.98,75.94 140.28,75.94 143.57,75.94 146.87,75.94 150.17,75.94 153.44,75.94 156.74,75.94 160.03,75.94 163.33,75.94 
      166.60,75.94 169.90,75.94 173.19,75.94 176.49,75.94 179.79,75.94 183.06,75.94 186.36,75.94 189.65,75.94 192.95,75.94 196.22,75.94 
      199.52,75.94 202.81,75.94 206.11,75.94 209.41,75.94 212.68,75.94 215.98,75.94 219.27,75.94 222.57,84.55 225.84,93.19 229.14,101.80 
      232.43,175.13 235.73,252.74 239.03,326.06 242.30,373.48 245.60,416.61 248.89,464.05 252.19,386.42 255.46,304.48 258.76,226.87 262.05,226.87 
      265.35,226.87 268.65,226.87 271.92,209.63 275.22,192.38 278.51,175.13 281.81,170.80 285.08,162.19 288.38,157.88 291.67,166.49 294.97,179.43 
      298.27,188.05 301.54,188.05 304.84,188.05 308.13,188.05 311.43,235.49 314.70,278.62 318.00,326.06 321.29,334.68 324.59,347.62 327.89,356.23 
      331.16,347.62 334.46,334.68 337.75,326.06 341.05,291.56 344.32,261.37 347.62,226.87 350.91,213.93 354.21,200.99 357.51,188.05 360.78,179.43 
      364.08,166.49 367.37,157.88 370.67,192.38 373.94,222.55 377.24,257.04 380.53,257.04 383.83,257.04 387.13,257.04 390.40,244.12 393.70,226.87 
      396.99,213.93 400.29,183.74 403.56,149.24 406.86,119.05 410.15,114.74 413.45,106.13 416.75,101.80 420.02,93.19 423.32,84.55 426.61,75.94 
      429.91,75.94 433.18,75.94 436.48,75.94 439.77,80.25 443.07,84.55 446.37,88.86 449.64,88.86 452.94,88.86 456.23,88.86 459.53,84.55 
      462.80,80.25 466.10,75.94 469.39,80.25 472.69,84.55 475.99,88.86 479.26,88.86 482.56,88.86 485.85,88.86 489.15,101.80 492.42,119.05 
      495.72,131.99 499.01,144.94 502.31,162.19 505.61,175.13 508.88,226.87 512.18,274.32 515.47,326.06 518.77,334.68 522.06,347.62 525.34,356.23 
      528.63,373.48 531.93,390.73 535.23,407.98 538.50,395.06 541.80,382.12 545.09,369.17 548.39,369.17 551.68,369.17 554.96,369.17 558.25,364.87 
      561.55,360.56 564.85,356.23 568.12,317.43 571.42,282.93 574.71,244.12 578.01,261.37 581.30,282.93 584.58,300.18 587.87,269.99 591.17,244.12 
      594.47,213.93 597.74,200.99 601.04,188.05 604.33,175.13 607.63,175.13 610.92,175.13 614.20,175.13 617.49,170.80 620.79,162.19 624.09,157.88 
      627.36,149.24 630.66,140.63 633.95,131.99 637.25,136.30 640.54,140.63 643.82,144.94 647.11,144.94 650.41,144.94 "/>
  </g>
</svg>
