<?xml version="1.0" encoding="UTF-8"?>
<!DOCTYPE svg PUBLIC "-//W3C//DTD SVG 1.1//EN"
        "http://www.w3.org/Graphics/SVG/1.1/DTD/svg11.dtd">
<svg
  xmlns="http://www.w3.org/2000/svg"
  xmlns:xlink="http://www.w3.org/1999/xlink"
  version="1.1"
  width="720pt"
  height="540pt"
  viewBox="0 0 720 540"
  >
  <rect
    x="0"
    y="0"
    width="720"
    height="540"
    stroke="none"
    fill="#000000"
    fill-opacity="1.000000"
    />
  <g
    transform="matrix(1 0 0 -1 0 540)"
    >
    <polyline
      stroke-width="1.000000e+00"
      stroke="#FFFFFF"
      stroke-opacity="1.000000"
      fill="none"
      points="100.79,63.00 657.00,63.00"
      />
    <polyline
      stroke-width="1.000000e+00"
      stroke="#FFFFFF"
      stroke-opacity="1.000000"
      fill="none"
      points="100.79,63.00 100.79,72.45"
      />
    <polyline
      stroke-width="1.000000e+00"
      stroke="#FFFFFF"
      stroke-opacity="1.000000"
      fill="none"
      points="133.71,63.00 133.71,67.72"
      />
    <polyline
      stroke-width="1.000000e+00"
      stroke="#FFFFFF"
      stroke-opacity="1.000000"
      fill="none"
      points="166.60,63.00 166.60,67.72"
      />
    <polyline
      stroke-width="1.000000e+00"
      stroke="#FFFFFF"
      stroke-opacity="1.000000"
      fill="none"
      points="199.52,63.00 199.52,67.72"
      />
    <polyline
      stroke-width="1.000000e+00"
      stroke="#FFFFFF"
      stroke-opacity="1.000000"
      fill="none"
      points="232.43,63.00 232.43,67.72"
      />
    <polyline
      stroke-width="1.000000e+00"
      stroke="#FFFFFF"
      stroke-opacity="1.000000"
      fill="none"
      points="265.35,63.00 265.35,72.45"
      />
    <polyline
      stroke-width="1.000000e+00"
      stroke="#FFFFFF"
      stroke-opacity="1.000000"
      fill="none"
      points="298.27,63.00 298.27,67.72"
      />
    <polyline
      stroke-width="1.000000e+00"
      stroke="#FFFFFF"
      stroke-opacity="1.000000"
      fill="none"
      points="331.16,63.00 331.16,67.72"
      />
    <polyline
      stroke-width="1.000000e+00"
      stroke="#FFFFFF"
      stroke-opacity="1.000000"
      fill="none"
      points="364.08,63.00 364.08,67.72"
      />
    <polyline
      stroke-width="1.000000e+00"
      stroke="#FFFFFF"
      stroke-opacity="1.000000"
      fill="none"
      points="396.99,63.00 396.99,67.72"
      />
    <polyline
      stroke-width="1.000000e+00"
      stroke="#FFFFFF"
      stroke-opacity="1.000000"
      fill="none"
      points="429.91,63.00 429.91,72.45"
      />
    <polyline
      stroke-width="1.000000e+00"
      stroke="#FFFFFF"
      stroke-opacity="1.000000"
      fill="none"
      points="462.80,63.00 462.80,67.72"
      />
    <polyline
      stroke-width="1.000000e+00"
      stroke="#FFFFFF"
      stroke-opacity="1.000000"
      fill="none"
      points="495.72,63.00 495.72,67.72"
      />
    <polyline
      stroke-width="1.000000e+00"
      stroke="#FFFFFF"
      stroke-opacity="1.000000"
      fill="none"
      points="528.63,63.00 528.63,67.72"
      />
    <polyline
      stroke-width="1.000000e+00"
      stroke="#FFFFFF"
      stroke-opacity="1.000000"
      fill="none"
      points="561.55,63.00 561.55,67.72"
      />
    <polyline
      stroke-width="1.000000e+00"
      stroke="#FFFFFF"
      stroke-opacity="1.000000"
      fill="none"
      points="594.47,63.00 594.47,72.45"
      />
    <polyline
      stroke-width="1.000000e+00"
      stroke="#FFFFFF"
      stroke-opacity="1.000000"
      fill="none"
      points="627.36,63.00 627.36,67.72"
      />
    <polyline
      stroke-width="1.000000e+00"
      stroke="#FFFFFF"
      stroke-opacity="1.000000"
      fill="none"
      points="657.00,63.00 657.00,477.00"
      />
    <polyline
      stroke-width="1.000000e+00"
      stroke="#FFFFFF"
      stroke-opacity="1.000000"
      fill="none"
      points="652.28,75.24 657.00,75.24"
      />
    <polyline
      stroke-width="1.000000e+00"
      stroke="#FFFFFF"
      stroke-opacity="1.000000"
      fill="none"
      points="652.28,95.63 657.00,95.63"
      />
    <polyline
      stroke-width="1.000000e+00"
      stroke="#FFFFFF"
      stroke-opacity="1.000000"
      fill="none"
      points="652.28,116.02 657.00,116.02"
      />
    <polyline
      stroke-width="1.000000e+00"
      stroke="#FFFFFF"
      stroke-opacity="1.000000"
      fill="none"
      points="652.28,136.41 657.00,136.41"
      />
    <polyline
      stroke-width="1.000000e+00"
      stroke="#FFFFFF"
      stroke-opacity="1.000000"
      fill="none"
      points="647.55,156.80 657.00,156.80"
      />
    <polyline
      stroke-width="1.000000e+00"
      stroke="#FFFFFF"
      stroke-opacity="1.000000"
      fill="none"
      points="652.28,177.19 657.00,177.19"
      />
    <polyline
      stroke-width="1.000000e+00"
      stroke="#FFFFFF"
      stroke-opacity="1.000000"
      fill="none"
      points="652.28,197.58 657.00,197.58"
      />
    <polyline
      stroke-width="1.000000e+00"
      stroke="#FFFFFF"
      stroke-opacity="1.000000"
      fill="none"
      points="652.28,218.00 657.00,218.00"
      />
    <polyline
      stroke-width="1.000000e+00"
      stroke="#FFFFFF"
      stroke-opacity="1.000000"
      fill="none"
      points="652.28,238.39 657.00,238.39"
      />
    <polyline
      stroke-width="1.000000e+00"
      stroke="#FFFFFF"
      stroke-opacity="1.000000"
      fill="none"
      points="647.55,258.78 657.00,258.78"
      />
    <polyline
      stroke-width="1.000000e+00"
      stroke="#FFFFFF"
      stroke-opacity="1.000000"
      fill="none"
      points="652.28,279.17 657.00,279.17"
      />
    <polyline
      stroke-width="1.000000e+00"
      stroke="#FFFFFF"
      stroke-opacity="1.000000"
      fill="none"
      points="652.28,299.56 657.00,299.56"
      />
    <polyline
      stroke-width="1.000000e+00"
      stroke="#FFFFFF"
      stroke-opacity="1.000000"
      fill="none"
      points="652.28,319.95 657.00,319.95"
      />
    <polyline
      stroke-width="1.000000e+00"
      stroke="#FFFFFF"
      stroke-opacity="1.000000"
      fill="none"
      points="652.28,340.34 657.00,340.34"
      />
    <polyline
      stroke-width="1.000000e+00"
      stroke="#FFFFFF"
      stroke-opacity="1.000000"
      fill="none"
      points="647.55,360.74 657.00,360.74"
      />
    <polyline
      stroke-width="1.000000e+00"
      stroke="#FFFFFF"
      stroke-opacity="1.000000"
      fill="none"
      points="652.28,381.13 657.00,381.13"
      />
    <polyline
      stroke-width="1.000000e+00"
      stroke="#FFFFFF"
      stroke-opacity="1.000000"
      fill="none"
      points="652.28,401.54 657.00,401.54"
      />
    <polyline
      stroke-width="1.000000e+00"
      stroke="#FFFFFF"
      stroke-opacity="1.000000"
      fill="none"
      points="652.28,421.93 657.00,421.93"
      />
    <polyline
      stroke-width="1.000000e+00"
      stroke="#FFFFFF"
      stroke-opacity="1.000000"
      fill="none"
      points="652.28,442.32 657.00,442.32"
      />
    <polyline
      stroke-width="1.000000e+00"
      stroke="#FFFFFF"
      stroke-opacity="1.000000"
      fill="none"
      points="647.55,462.71 657.00,462.71"
      />
    <polyline
      stroke-width="1.000000e+00"
      stroke="#FFFFFF"
      stroke-opacity="1.000000"
      fill="none"
      points="657.00,477.00 100.79,477.00"
      />
    <polyline
      stroke-width="1.000000e+00"
      stroke="#FFFFFF"
      stroke-opacity="1.000000"
      fill="none"
      points="627.36,472.27 627.36,477.00"
      />
    <polyline
      stroke-width="1.000000e+00"
      stroke="#FFFFFF"
      stroke-opacity="1.000000"
      fill="none"
      points="594.47,467.55 594.47,477.00"
      />
    <polyline
      stroke-width="1.000000e+00"
      stroke="#FFFFFF"
      stroke-opacity="1.000000"
      fill="none"
      points="561.55,472.27 561.55,477.00"
      />
    <polyline
      stroke-width="1.000000e+00"
      stroke="#FFFFFF"
      stroke-opacity="1.000000"
      fill="none"
      points="528.63,472.27 528.63,477.00"
      />
    <polyline
      stroke-width="1.000000e+00"
      stroke="#FFFFFF"
      stroke-opacity="1.000000"
      fill="none"
      points="495.72,472.27 495.72,477.00"
      />
    <polyline
      stroke-width="1.000000e+00"
      stroke="#FFFFFF"
      stroke-opacity="1.000000"
      fill="none"
      points="462.80,472.27 462.80,477.00"
      />
    <polyline
      stroke-width="1.000000e+00"
      stroke="#FFFFFF"
      stroke-opacity="1.000000"
      fill="none"
      points="429.91,467.55 429.91,477.00"
      />
    <polyline
      stroke-width="1.000000e+00"
      stroke="#FFFFFF"
      stroke-opacity="1.000000"
      fill="none"
      points="396.99,472.27 396.99,477.00"
      />
    <polyline
      stroke-width="1.000000e+00"
      stroke="#FFFFFF"
      stroke-opacity="1.000000"
      fill="none"
      points="364.08,472.27 364.08,477.00"
      />
    <polyline
      stroke-width="1.000000e+00"
      stroke="#FFFFFF"
      stroke-opacity="1.000000"
      fill="none"
      points="331.16,472.27 331.16,477.00"
      />
    <polyline
      stroke-width="1.000000e+00"
      stroke="#FFFFFF"
      stroke-opacity="1.000000"
      fill="none"
      points="298.27,472.27 298.27,477.00"
      />
    <polyline
      stroke-width="1.000000e+00"
      stroke="#FFFFFF"
      stroke-opacity="1.000000"
      fill="none"
      points="265.35,467.55 265.35,477.00"
      />
    <polyline
      stroke-width="1.000000e+00"
      stroke="#FFFFFF"
      stroke-opacity="1.000000"
      fill="none"
      points="232.43,472.27 232.43,477.00"
      />
    <polyline
      stroke-width="1.000000e+00"
      stroke="#FFFFFF"
      stroke-opacity="1.000000"
      fill="none"
      points="199.52,472.27 199.52,477.00"
      />
    <polyline
      stroke-width="1.000000e+00"
      stroke="#FFFFFF"
      stroke-opacity="1.000000"
      fill="none"
      points="166.60,472.27 166.60,477.00"
      />
    <polyline
      stroke-width="1.000000e+00"
      stroke="#FFFFFF"
      stroke-opacity="1.000000"
      fill="none"
      points="133.71,472.27 133.71,477.00"
      />
    <polyline
      stroke-width="1.000000e+00"
      stroke="#FFFFFF"
      stroke-opacity="1.000000"
      fill="none"
      points="100.79,467.55 100.79,477.00"
      />
    <polyline
      stroke-width="1.000000e+00"
      stroke="#FFFFFF"
      stroke-opacity="1.000000"
      fill="none"
      points="100.79,477.00 100.79,63.00"
      />
    <polyline
      stroke-width="1.000000e+00"
      stroke="#FFFFFF"
      stroke-opacity="1.000000"
      fill="none"
      points="100.79,462.71 110.24,462.71"
      />
    <polyline
      stroke-width="1.000000e+00"
      stroke="#FFFFFF"
      stroke-opacity="1.000000"
      fill="none"
      points="100.79,442.32 105.52,442.32"
      />
    <polyline
      stroke-width="1.000000e+00"
      stroke="#FFFFFF"
      stroke-opacity="1.000000"
      fill="none"
      points="100.79,421.93 105.52,421.93"
      />
    <polyline
      stroke-width="1.000000e+00"
      stroke="#FFFFFF"
      stroke-opacity="1.000000"
      fill="none"
      points="100.79,401.54 105.52,401.54"
      />
    <polyline
      stroke-width="1.000000e+00"
      stroke="#FFFFFF"
      stroke-opacity="1.000000"
      fill="none"
      points="100.79,381.13 105.52,381.13"
      />
    <polyline
      stroke-width="1.000000e+00"
      stroke="#FFFFFF"
      stroke-opacity="1.000000"
      fill="none"
      points="100.79,360.74 110.24,360.74"
      />
    <polyline
      stroke-width="1.000000e+00"
      stroke="#FFFFFF"
      stroke-opacity="1.000000"
      fill="none"
      points="100.79,340.34 105.52,340.34"
      />
    <polyline
      stroke-width="1.000000e+00"
      stroke="#FFFFFF"
      stroke-opacity="1.000000"
      fill="none"
      points="100.79,319.95 105.52,319.95"
      />
    <polyline
      stroke-width="1.000000e+00"
      stroke="#FFFFFF"
      stroke-opacity="1.000000"
      fill="none"
      points="100.79,299.56 105.52,299.56"
      />
    <polyline
      stroke-width="1.000000e+00"
      stroke="#FFFFFF"
      stroke-opacity="1.000000"
      fill="none"
      points="100.79,279.17 105.52,279.17"
      />
    <polyline
      stroke-width="1.000000e+00"
      stroke="#FFFFFF"
      stroke-opacity="1.000000"
      fill="none"
      points="100.79,258.78 110.24,258.78"
      />
    <polyline
      stroke-width="1.000000e+00"
      stroke="#FFFFFF"
      stroke-opacity="1.000000"
      fill="none"
      points="100.79,238.39 105.52,238.39"
      />
    <polyline
      stroke-width="1.000000e+00"
      stroke="#FFFFFF"
      stroke-opacity="1.000000"
      fill="none"
      points="100.79,218.00 105.52,218.00"
      />
    <polyline
      stroke-width="1.000000e+00"
      stroke="#FFFFFF"
      stroke-opacity="1.000000"
      fill="none"
      points="100.79,197.58 105.52,197.58"
      />
    <polyline
      stroke-width="1.000000e+00"
      stroke="#FFFFFF"
      stroke-opacity="1.000000"
      fill="none"
      points="100.79,177.19 105.52,177.19"
      />
    <polyline
      stroke-width="1.000000e+00"
      stroke="#FFFFFF"
      stroke-opacity="1.000000"
      fill="none"
      points="100.79,156.80 110.24,156.80"
      />
    <polyline
      stroke-width="1.000000e+00"
      stroke="#FFFFFF"
      stroke-opacity="1.000000"
      fill="none"
      points="100.79,136.41 105.52,136.41"
      />
    <polyline
      stroke-width="1.000000e+00"
      stroke="#FFFFFF"
      stroke-opacity="1.000000"
      fill="none"
      points="100.79,116.02 105.52,116.02"
      />
    <polyline
      stroke-width="1.000000e+00"
      stroke="#FFFFFF"
      stroke-opacity="1.000000"
      fill="none"
      points="100.79,95.63 105.52,95.63"
      />
    <polyline
      stroke-width="1.000000e+00"
      stroke="#FFFFFF"
      stroke-opacity="1.000000"
      fill="none"
      points="100.79,75.24 105.52,75.24"
      />
    <clipPath
      id="text-clipping0"
      >
      <polygon
        points="0.000000,0.000000 0.000000,539.994507 720.000000,539.994507 720.000000,0.000000"
        />
    </clipPath>
    <g
      clip-path="url(#text-clipping0)"
      >
      <text
        dominant-baseline="no-change"
        fill="#FFFFFF"
        fill-opacity="1.000000"
        xml:space="preserve"
        font-size="16"
        transform="matrix(1.000000 0.000000 0.000000 -1.000000 100.813623 44.100467)"
        text-anchor="middle"
        x="0.000000"
        y="6.451584"
><tspan font-family="sans-serif" font-style="normal" font-weight="normal">&#x30;</tspan></text>
    </g>
    <g
      clip-path="url(#text-clipping0)"
      >
      <text
        dominant-baseline="no-change"
        fill="#FFFFFF"
        fill-opacity="1.000000"
        xml:space="preserve"
        font-size="16"
        transform="matrix(1.000000 0.000000 0.000000 -1.000000 265.349895 44.100467)"
        text-anchor="middle"
        x="0.000000"
        y="6.451584"
><tspan font-family="sans-serif" font-style="normal" font-weight="normal">&#x35;&#x30;</tspan></text>
    </g>
    <g
      clip-path="url(#text-clipping0)"
      >
      <text
        dominant-baseline="no-change"
        fill="#FFFFFF"
        fill-opacity="1.000000"
        xml:space="preserve"
        font-size="16"
        transform="matrix(1.000000 0.000000 0.000000 -1.000000 429.908139 44.100467)"
        text-anchor="middle"
        x="0.000000"
        y="6.451584"
><tspan font-family="sans-serif" font-style="normal" font-weight="normal">&#x31;&#x30;&#x30;</tspan></text>
    </g>
    <g
      clip-path="url(#text-clipping0)"
      >
      <text
        dominant-baseline="no-change"
        fill="#FFFFFF"
        fill-opacity="1.000000"
        xml:space="preserve"
        font-size="16"
        transform="matrix(1.000000 0.000000 0.000000 -1.000000 594.466384 44.100467)"
        text-anchor="middle"
        x="0.000000"
        y="6.451584"
><tspan font-family="sans-serif" font-style="normal" font-weight="normal">&#x31;&#x35;&#x30;</tspan></text>
    </g>
    <g
      clip-path="url(#text-clipping0)"
      >
      <text
        dominant-baseline="no-change"
        fill="#FFFFFF"
        fill-opacity="1.000000"
        xml:space="preserve"
        font-size="16"
        transform="matrix(1.000000 0.000000 0.000000 -1.000000 94.507279 156.823634)"
        text-anchor="end"
        x="0.000000"
        y="6.451584"
><tspan font-family="sans-serif" font-style="normal" font-weight="normal">&#x35;</tspan></text>
    </g>
    <g
      clip-path="url(#text-clipping0)"
      >
      <text
        dominant-baseline="no-change"
        fill="#FFFFFF"
        fill-opacity="1.000000"
        xml:space="preserve"
        font-size="16"
        transform="matrix(1.000000 0.000000 0.000000 -1.000000 94.507279 258.779870)"
        text-anchor="end"
        x="0.000000"
        y="6.451584"
><tspan font-family="sans-serif" font-style="normal" font-weight="normal">&#x31;&#x30;</tspan></text>
    </g>
    <g
      clip-path="url(#text-clipping0)"
      >
      <text
        dominant-baseline="no-change"
        fill="#FFFFFF"
        fill-opacity="1.000000"
        xml:space="preserve"
        font-size="16"
        transform="matrix(1.000000 0.000000 0.000000 -1.000000 94.507279 360.758080)"
        text-anchor="end"
        x="0.000000"
        y="6.451584"
><tspan font-family="sans-serif" font-style="normal" font-weight="normal">&#x31;&#x35;</tspan></text>
    </g>
    <g
      clip-path="url(#text-clipping0)"
      >
      <text
        dominant-baseline="no-change"
        fill="#FFFFFF"
        fill-opacity="1.000000"
        xml:space="preserve"
        font-size="16"
        transform="matrix(1.000000 0.000000 0.000000 -1.000000 94.507279 462.714316)"
        text-anchor="end"
        x="0.000000"
        y="6.451584"
><tspan font-family="sans-serif" font-style="normal" font-weight="normal">&#x32;&#x30;</tspan></text>
    </g>
    <g
      clip-path="url(#text-clipping0)"
      >
      <text
        dominant-baseline="no-change"
        fill="#FFFFFF"
        fill-opacity="1.000000"
        xml:space="preserve"
        font-size="16"
        transform="matrix(1.000000 0.000000 0.000000 -1.000000 378.908048 502.200385)"
        text-anchor="middle"
        x="0.000000"
        y="6.451584"
><tspan font-family="sans-serif" font-style="normal" font-weight="normal">&#x54;&#x68;&#x65;&#x20;&#x70;&#x6c;&#x6f;&#x74;&#x20;&#x6f;&#x66;&#x20;&#x57;&#x69;&#x6e;&#x64;&#x20;&#x53;&#x70;&#x65;&#x65;&#x64;&#x20;&#x77;&#x69;&#x74;&#x68;&#x20;&#x72;&#x65;&#x73;&#x70;&#x65;&#x63;&#x74;&#x20;&#x74;&#x6f;&#x20;&#x54;&#x69;&#x6d;&#x65;</tspan></text>
    </g>
    <g
      clip-path="url(#text-clipping0)"
      >
      <text
        dominant-baseline="no-change"
        fill="#FFFFFF"
        fill-opacity="1.000000"
        xml:space="preserve"
        font-size="16"
        transform="matrix(1.000000 0.000000 0.000000 -1.000000 378.908048 22.676473)"
        text-anchor="middle"
        x="0.000000"
        y="6.451584"
><tspan font-family="sans-serif" font-style="normal" font-weight="normal">&#x54;&#x69;&#x6d;&#x65;</tspan></text>
    </g>
    <g
      clip-path="url(#text-clipping0)"
      >
      <text
        dominant-baseline="no-change"
        fill="#FFFFFF"
        fill-opacity="1.000000"
        xml:space="preserve"
        font-size="16"
        transform="matrix(0.000000 1.000000 1.000000 -0.000000 37.794122 270.008240)"
        text-anchor="middle"
        x="0.000000"
        y="6.451584"
><tspan font-family="sans-serif" font-style="normal" font-weight="normal">&#x57;&#x69;&#x6e;&#x64;&#x20;&#x53;&#x70;&#x65;&#x65;&#x64;</tspan></text>
    </g>
    <polyline
      stroke-width="1.000000e+00"
      stroke="#FFFFFF"
      stroke-opacity="1.000000"
      fill="none"
      points="100.79,148.65 104.09,144.56 107.36,144.56 110.66,142.54 113.95,138.45 117.25,140.50 120.55,144.56 123.82,150.69 127.12,142.54 130.41,136.41 
      133.71,142.54 136.98,173.13 140.28,173.13 143.57,156.80 146.87,136.41 150.17,128.26 153.44,132.35 156.74,140.50 160.03,132.35 163.33,138.45 
      166.60,152.74 169.90,177.19 173.19,185.37 176.49,167.00 179.79,164.95 183.06,173.13 186.36,173.13 189.65,181.28 192.95,167.00 196.22,183.32 
      199.52,164.95 202.81,167.00 206.11,177.19 209.41,160.89 212.68,173.13 215.98,195.56 219.27,203.71 222.57,207.80 225.84,205.76 229.14,207.80 
      232.43,211.87 235.73,195.56 239.03,195.56 242.30,185.37 245.60,189.43 248.89,201.67 252.19,207.80 255.46,209.82 258.76,215.95 262.05,226.15 
      265.35,232.26 268.65,230.21 271.92,222.06 275.22,226.15 278.51,224.11 281.81,220.02 285.08,226.15 288.38,224.11 291.67,224.11 294.97,224.11 
      298.27,238.39 301.54,230.21 304.84,226.15 308.13,234.30 311.43,248.58 314.70,248.58 318.00,240.41 321.29,248.58 324.59,262.84 327.89,260.82 
      331.16,260.82 334.46,275.08 337.75,266.93 341.05,275.08 344.32,277.13 347.62,277.13 350.91,271.02 354.21,262.84 357.51,279.17 360.78,271.02 
      364.08,268.98 367.37,273.04 370.67,289.37 373.94,266.93 377.24,232.26 380.53,238.39 383.83,260.82 387.13,271.02 390.40,293.45 393.70,356.67 
      396.99,415.80 400.29,401.54 403.56,356.67 406.86,322.00 410.15,301.61 413.45,285.28 416.75,268.98 420.02,246.54 423.32,218.00 426.61,193.52 
      429.91,179.24 433.18,169.04 436.48,167.00 439.77,169.04 443.07,179.24 446.37,189.43 449.64,189.43 452.94,179.24 456.23,173.13 459.53,171.08 
      462.80,169.04 466.10,164.95 469.39,162.93 472.69,164.95 475.99,167.00 479.26,181.28 482.56,195.56 485.85,209.82 489.15,215.95 492.42,218.00 
      495.72,218.00 499.01,228.19 502.31,238.39 505.61,254.69 508.88,273.04 512.18,295.48 515.47,313.85 518.77,379.11 522.06,377.06 525.34,370.93 
      528.63,348.50 531.93,330.15 535.23,305.67 538.50,289.37 541.80,268.98 545.09,252.65 548.39,232.26 551.68,209.82 554.96,187.39 558.25,173.13 
      561.55,150.69 564.85,136.41 568.12,124.17 571.42,128.26 574.71,138.45 578.01,150.69 581.30,164.95 584.58,175.17 587.87,173.13 591.17,169.04 
      594.47,173.13 597.74,197.58 601.04,230.21 604.33,252.65 607.63,230.21 610.92,193.52 614.20,175.17 617.49,169.04 620.79,175.17 624.09,169.04 
      627.36,164.95 630.66,167.00 633.95,167.00 637.25,167.00 640.54,171.08 643.82,171.08 647.11,171.08 650.41,177.19 "/>
  </g>
</svg>
